 http://www.imdb.com/title/tt0348150/  

Source: Superman.Returns.2006.720p.BluRay.DTS.x264-ESiR Thanks!

Subs: Arabic, Bulgarian, Czech, Danish, Dutch, English, Farsi-Persian, Finnish, French, Greek, Hungarian, Indonesian, Polish, Portuguese, Romanian, Servian, Spanish, Swedish, Turkish and Vietnamese.

Sample and Screens included.

General
Complete name                            : Superman Returns-720p MP4 AAC x264 BRRip 2006-CC.mp4
Format                                   : MPEG-4
Format profile                           : Base Media
Codec ID                                 : isom
File size                                : 3.47 GiB
Duration                                 : 2h 34mn
Overall bit rate mode                    : Variable
Overall bit rate                         : 3 215 Kbps
Encoded date                             : UTC 2013-01-14 19:56:12

Video
ID                                       : 1
Format                                   : AVC
Format/Info                              : Advanced Video Codec
Format profile                           : High@L4.1
Format settings, CABAC                   : Yes
Format settings, ReFrames                : 5 frames
Codec ID                                 : avc1
Codec ID/Info                            : Advanced Video Coding
Duration                                 : 2h 34mn
Bit rate                                 : 2 837 Kbps
Maximum bit rate                         : 11.9 Mbps
Width                                    : 1 280 pixels
Height                                   : 532 pixels
Display aspect ratio                     : 2.40:1
Frame rate mode                          : Variable
Frame rate                               : 23.976 fps
Minimum frame rate                       : 19.048 fps
Maximum frame rate                       : 24.390 fps
Color space                              : YUV
Chroma subsampling                       : 4:2:0
Bit depth                                : 8 bits
Scan type                                : Progressive
Bits/(Pixel*Frame)                       : 0.174
Stream size                              : 3.05 GiB (88%)
Writing library                          : x264 core 112

Audio
ID                                       : 2
Format                                   : AAC
Format/Info                              : Advanced Audio Codec
Format profile                           : LC
Codec ID                                 : 40
Duration                                 : 2h 34mn
Bit rate mode                            : Variable
Bit rate                                 : 384 Kbps
Maximum bit rate                         : 686 Kbps
Channel(s)                               : 6 channels
Channel positions                        : Front: L C R, Side: L R, LFE
Sampling rate                            : 48.0 KHz
Compression mode                         : Lossy
Delay relative to video                  : 83ms
Stream size                              : 423 MiB (12%)
Language                                 : English

Enjoy...

Requested by iamharski

Coming soon: Apocalypse Hitler, Twilight Samurai, The Big Heat, Frequency and more..